<?xml version="1.0" encoding="UTF-8" standalone="no"?>
<!DOCTYPE svg PUBLIC "-//W3C//DTD SVG 1.1//EN"
 "http://www.w3.org/Graphics/SVG/1.1/DTD/svg11.dtd">
<!-- Generated by graphviz version 8.0.5 (0)
 -->
<!-- Pages: 1 -->
<svg width="287pt" height="155pt"
 viewBox="0.00 0.00 286.69 155.00" xmlns="http://www.w3.org/2000/svg" xmlns:xlink="http://www.w3.org/1999/xlink">
<g id="graph0" class="graph" transform="scale(1 1) rotate(0) translate(4 151)">
<polygon fill="white" stroke="none" points="-4,4 -4,-151 282.69,-151 282.69,4 -4,4"/>
<g id="clust1" class="cluster">
<title>cluster&#45;:2</title>
<polygon fill="none" stroke="black" points="8,-8 8,-139 270.69,-139 270.69,-8 8,-8"/>
<text text-anchor="middle" x="139.34" y="-122.4" font-family="Times,serif" font-size="14.00">&#45;:2</text>
</g>
<!-- node3 -->
<g id="node1" class="node">
<title>node3</title>
<ellipse fill="none" stroke="red" cx="72.09" cy="-88" rx="56.09" ry="18"/>
<text text-anchor="middle" x="72.09" y="-83.8" font-family="Times,serif" font-size="14.00">Region(&#45;:2)</text>
</g>
<!-- node7 -->
<g id="node3" class="node">
<title>node7</title>
<ellipse fill="none" stroke="red" cx="228.59" cy="-53" rx="34.09" ry="18"/>
<text text-anchor="middle" x="228.59" y="-48.8" font-family="Times,serif" font-size="14.00">return</text>
</g>
<!-- node3&#45;&gt;node7 -->
<g id="edge2" class="edge">
<title>node3&#45;&gt;node7</title>
<path fill="none" stroke="black" stroke-dasharray="5,2" d="M121.12,-78.94C138.61,-75.46 158.5,-71.29 176.5,-67 180.1,-66.14 183.83,-65.21 187.56,-64.24"/>
<polygon fill="black" stroke="black" points="188.19,-67.43 196.96,-61.48 186.4,-60.67 188.19,-67.43"/>
</g>
<!-- node5 -->
<g id="node2" class="node">
<title>node5</title>
<polygon fill="none" stroke="black" points="105.18,-52 39.01,-52 39.01,-16 105.18,-16 105.18,-52"/>
<text text-anchor="middle" x="72.09" y="-29.8" font-family="Times,serif" font-size="14.00">1: uint64</text>
</g>
<!-- node5&#45;&gt;node7 -->
<g id="edge1" class="edge">
<title>node5&#45;&gt;node7</title>
<path fill="none" stroke="black" d="M105.48,-37.98C128.37,-40.8 159.31,-44.6 184.32,-47.68"/>
<polygon fill="black" stroke="black" points="183.63,-51.24 193.98,-48.99 184.48,-44.3 183.63,-51.24"/>
<text text-anchor="middle" x="161.34" y="-50.2" font-family="Times,serif" font-size="14.00">value</text>
</g>
</g>
</svg>
